<?xml version="1.0" encoding="us-ascii" standalone="no"?><svg xmlns="http://www.w3.org/2000/svg" xmlns:xlink="http://www.w3.org/1999/xlink" contentStyleType="text/css" height="1145px" preserveAspectRatio="none" style="width:844px;height:1145px;background:#24292F;" version="1.1" viewBox="0 0 844 1145" width="844px" zoomAndPan="magnify"><defs/><g><rect fill="#24292F" height="1145" style="stroke:none;stroke-width:1.0;" width="844" x="0" y="0"/><!--class Usuario--><g id="elem_Usuario"><rect codeLine="28" fill="#979C9F" height="118.4375" id="Usuario" rx="2.5" ry="2.5" style="stroke:#FFFFFF;stroke-width:0.5;" width="99" x="506.5" y="16"/><ellipse cx="530.05" cy="32" fill="#ADD1B2" rx="11" ry="11" style="stroke:#181818;stroke-width:1.0;"/><path d="M532.8156,27.875 Q532.9719,27.6563 533.1594,27.5469 Q533.3469,27.4375 533.5656,27.4375 Q533.9406,27.4375 534.175,27.7031 Q534.4094,27.9531 534.4094,28.5625 L534.4094,30.0156 Q534.4094,30.625 534.175,30.8906 Q533.9406,31.1563 533.5656,31.1563 Q533.2219,31.1563 533.0188,30.9531 Q532.8156,30.7656 532.7063,30.25 Q532.6594,29.8906 532.4719,29.7031 Q532.1438,29.3281 531.5344,29.1094 Q530.925,28.8906 530.3,28.8906 Q529.5344,28.8906 528.8938,29.2188 Q528.2688,29.5469 527.7688,30.2969 Q527.2844,31.0469 527.2844,32.0781 L527.2844,33.1719 Q527.2844,34.4063 528.175,35.2344 Q529.0656,36.0469 530.6594,36.0469 Q531.5969,36.0469 532.2531,35.7969 Q532.6438,35.6406 533.0656,35.2031 Q533.3313,34.9375 533.4719,34.8594 Q533.6281,34.7813 533.8313,34.7813 Q534.1594,34.7813 534.4094,35.0469 Q534.675,35.2969 534.675,35.6406 Q534.675,35.9844 534.3313,36.3906 Q533.8313,36.9688 533.0344,37.2969 Q531.9563,37.75 530.6594,37.75 Q529.1438,37.75 527.9406,37.125 Q526.9563,36.625 526.2688,35.5625 Q525.5813,34.4844 525.5813,33.2031 L525.5813,32.0469 Q525.5813,30.7188 526.1906,29.5781 Q526.8156,28.4219 527.9094,27.8125 Q529.0031,27.1875 530.2375,27.1875 Q530.9719,27.1875 531.6125,27.3594 Q532.2688,27.5156 532.8156,27.875 Z " fill="#000000"/><text fill="#FFFFFF" font-family="sans-serif" font-size="14" lengthAdjust="spacing" textLength="48" x="545.95" y="37.7285">Usuario</text><line style="stroke:#FFFFFF;stroke-width:0.5;" x1="507.5" x2="604.5" y1="48" y2="48"/><text fill="#000000" font-family="sans-serif" font-size="14" lengthAdjust="spacing" textLength="39" x="512.5" y="66.5332">-id: int</text><text fill="#000000" font-family="sans-serif" font-size="14" lengthAdjust="spacing" textLength="83" x="512.5" y="84.1426">-nome: string</text><text fill="#000000" font-family="sans-serif" font-size="14" lengthAdjust="spacing" textLength="81" x="512.5" y="101.752">-email: string</text><text fill="#000000" font-family="sans-serif" font-size="14" lengthAdjust="spacing" textLength="87" x="512.5" y="119.3613">-senha: string</text><line style="stroke:#FFFFFF;stroke-width:0.5;" x1="507.5" x2="604.5" y1="126.4375" y2="126.4375"/></g><!--class Cliente--><g id="elem_Cliente"><rect codeLine="35" fill="#979C9F" height="48" id="Cliente" rx="2.5" ry="2.5" style="stroke:#FFFFFF;stroke-width:0.5;" width="76" x="339" y="230.5"/><ellipse cx="354" cy="246.5" fill="#ADD1B2" rx="11" ry="11" style="stroke:#181818;stroke-width:1.0;"/><path d="M356.7656,242.375 Q356.9219,242.1563 357.1094,242.0469 Q357.2969,241.9375 357.5156,241.9375 Q357.8906,241.9375 358.125,242.2031 Q358.3594,242.4531 358.3594,243.0625 L358.3594,244.5156 Q358.3594,245.125 358.125,245.3906 Q357.8906,245.6563 357.5156,245.6563 Q357.1719,245.6563 356.9688,245.4531 Q356.7656,245.2656 356.6563,244.75 Q356.6094,244.3906 356.4219,244.2031 Q356.0938,243.8281 355.4844,243.6094 Q354.875,243.3906 354.25,243.3906 Q353.4844,243.3906 352.8438,243.7188 Q352.2188,244.0469 351.7188,244.7969 Q351.2344,245.5469 351.2344,246.5781 L351.2344,247.6719 Q351.2344,248.9063 352.125,249.7344 Q353.0156,250.5469 354.6094,250.5469 Q355.5469,250.5469 356.2031,250.2969 Q356.5938,250.1406 357.0156,249.7031 Q357.2813,249.4375 357.4219,249.3594 Q357.5781,249.2813 357.7813,249.2813 Q358.1094,249.2813 358.3594,249.5469 Q358.625,249.7969 358.625,250.1406 Q358.625,250.4844 358.2813,250.8906 Q357.7813,251.4688 356.9844,251.7969 Q355.9063,252.25 354.6094,252.25 Q353.0938,252.25 351.8906,251.625 Q350.9063,251.125 350.2188,250.0625 Q349.5313,248.9844 349.5313,247.7031 L349.5313,246.5469 Q349.5313,245.2188 350.1406,244.0781 Q350.7656,242.9219 351.8594,242.3125 Q352.9531,241.6875 354.1875,241.6875 Q354.9219,241.6875 355.5625,241.8594 Q356.2188,242.0156 356.7656,242.375 Z " fill="#000000"/><text fill="#FFFFFF" font-family="sans-serif" font-size="14" lengthAdjust="spacing" textLength="44" x="368" y="252.2285">Cliente</text><line style="stroke:#FFFFFF;stroke-width:0.5;" x1="340" x2="414" y1="262.5" y2="262.5"/><line style="stroke:#FFFFFF;stroke-width:0.5;" x1="340" x2="414" y1="270.5" y2="270.5"/></g><!--class Produtor--><g id="elem_Produtor"><rect codeLine="36" fill="#979C9F" height="65.6094" id="Produtor" rx="2.5" ry="2.5" style="stroke:#FFFFFF;stroke-width:0.5;" width="150" x="613" y="335"/><ellipse cx="656.35" cy="351" fill="#ADD1B2" rx="11" ry="11" style="stroke:#181818;stroke-width:1.0;"/><path d="M659.1156,346.875 Q659.2719,346.6563 659.4594,346.5469 Q659.6469,346.4375 659.8656,346.4375 Q660.2406,346.4375 660.475,346.7031 Q660.7094,346.9531 660.7094,347.5625 L660.7094,349.0156 Q660.7094,349.625 660.475,349.8906 Q660.2406,350.1563 659.8656,350.1563 Q659.5219,350.1563 659.3188,349.9531 Q659.1156,349.7656 659.0063,349.25 Q658.9594,348.8906 658.7719,348.7031 Q658.4438,348.3281 657.8344,348.1094 Q657.225,347.8906 656.6,347.8906 Q655.8344,347.8906 655.1938,348.2188 Q654.5688,348.5469 654.0688,349.2969 Q653.5844,350.0469 653.5844,351.0781 L653.5844,352.1719 Q653.5844,353.4063 654.475,354.2344 Q655.3656,355.0469 656.9594,355.0469 Q657.8969,355.0469 658.5531,354.7969 Q658.9438,354.6406 659.3656,354.2031 Q659.6313,353.9375 659.7719,353.8594 Q659.9281,353.7813 660.1313,353.7813 Q660.4594,353.7813 660.7094,354.0469 Q660.975,354.2969 660.975,354.6406 Q660.975,354.9844 660.6313,355.3906 Q660.1313,355.9688 659.3344,356.2969 Q658.2563,356.75 656.9594,356.75 Q655.4438,356.75 654.2406,356.125 Q653.2563,355.625 652.5688,354.5625 Q651.8813,353.4844 651.8813,352.2031 L651.8813,351.0469 Q651.8813,349.7188 652.4906,348.5781 Q653.1156,347.4219 654.2094,346.8125 Q655.3031,346.1875 656.5375,346.1875 Q657.2719,346.1875 657.9125,346.3594 Q658.5688,346.5156 659.1156,346.875 Z " fill="#000000"/><text fill="#FFFFFF" font-family="sans-serif" font-size="14" lengthAdjust="spacing" textLength="55" x="676.65" y="356.7285">Produtor</text><line style="stroke:#FFFFFF;stroke-width:0.5;" x1="614" x2="762" y1="367" y2="367"/><text fill="#000000" font-family="sans-serif" font-size="14" lengthAdjust="spacing" textLength="138" x="619" y="385.5332">-nomeFazenda: string</text><line style="stroke:#FFFFFF;stroke-width:0.5;" x1="614" x2="762" y1="392.6094" y2="392.6094"/></g><!--class Endereco--><g id="elem_Endereco"><rect codeLine="47" fill="#979C9F" height="118.4375" id="Endereco" rx="2.5" ry="2.5" style="stroke:#FFFFFF;stroke-width:0.5;" width="102" x="157" y="1020"/><ellipse cx="176.05" cy="1036" fill="#ADD1B2" rx="11" ry="11" style="stroke:#181818;stroke-width:1.0;"/><path d="M178.8156,1031.875 Q178.9719,1031.6563 179.1594,1031.5469 Q179.3469,1031.4375 179.5656,1031.4375 Q179.9406,1031.4375 180.175,1031.7031 Q180.4094,1031.9531 180.4094,1032.5625 L180.4094,1034.0156 Q180.4094,1034.625 180.175,1034.8906 Q179.9406,1035.1563 179.5656,1035.1563 Q179.2219,1035.1563 179.0188,1034.9531 Q178.8156,1034.7656 178.7063,1034.25 Q178.6594,1033.8906 178.4719,1033.7031 Q178.1438,1033.3281 177.5344,1033.1094 Q176.925,1032.8906 176.3,1032.8906 Q175.5344,1032.8906 174.8938,1033.2188 Q174.2688,1033.5469 173.7688,1034.2969 Q173.2844,1035.0469 173.2844,1036.0781 L173.2844,1037.1719 Q173.2844,1038.4063 174.175,1039.2344 Q175.0656,1040.0469 176.6594,1040.0469 Q177.5969,1040.0469 178.2531,1039.7969 Q178.6438,1039.6406 179.0656,1039.2031 Q179.3313,1038.9375 179.4719,1038.8594 Q179.6281,1038.7813 179.8313,1038.7813 Q180.1594,1038.7813 180.4094,1039.0469 Q180.675,1039.2969 180.675,1039.6406 Q180.675,1039.9844 180.3313,1040.3906 Q179.8313,1040.9688 179.0344,1041.2969 Q177.9563,1041.75 176.6594,1041.75 Q175.1438,1041.75 173.9406,1041.125 Q172.9563,1040.625 172.2688,1039.5625 Q171.5813,1038.4844 171.5813,1037.2031 L171.5813,1036.0469 Q171.5813,1034.7188 172.1906,1033.5781 Q172.8156,1032.4219 173.9094,1031.8125 Q175.0031,1031.1875 176.2375,1031.1875 Q176.9719,1031.1875 177.6125,1031.3594 Q178.2688,1031.5156 178.8156,1031.875 Z " fill="#000000"/><text fill="#FFFFFF" font-family="sans-serif" font-size="14" lengthAdjust="spacing" textLength="61" x="190.95" y="1041.7285">Endereco</text><line style="stroke:#FFFFFF;stroke-width:0.5;" x1="158" x2="258" y1="1052" y2="1052"/><text fill="#000000" font-family="sans-serif" font-size="14" lengthAdjust="spacing" textLength="69" x="163" y="1070.5332">-rua: string</text><text fill="#000000" font-family="sans-serif" font-size="14" lengthAdjust="spacing" textLength="76" x="163" y="1088.1426">-numero: int</text><text fill="#000000" font-family="sans-serif" font-size="14" lengthAdjust="spacing" textLength="90" x="163" y="1105.752">-cidade: string</text><text fill="#000000" font-family="sans-serif" font-size="14" lengthAdjust="spacing" textLength="71" x="163" y="1123.3613">-cep: string</text><line style="stroke:#FFFFFF;stroke-width:0.5;" x1="158" x2="258" y1="1130.4375" y2="1130.4375"/></g><!--class Plano--><g id="elem_Plano"><rect codeLine="60" fill="#979C9F" height="136.0469" id="Plano" rx="2.5" ry="2.5" style="stroke:#FFFFFF;stroke-width:0.5;" width="127" x="227.5" y="610"/><ellipse cx="269.05" cy="626" fill="#ADD1B2" rx="11" ry="11" style="stroke:#181818;stroke-width:1.0;"/><path d="M271.8156,621.875 Q271.9719,621.6563 272.1594,621.5469 Q272.3469,621.4375 272.5656,621.4375 Q272.9406,621.4375 273.175,621.7031 Q273.4094,621.9531 273.4094,622.5625 L273.4094,624.0156 Q273.4094,624.625 273.175,624.8906 Q272.9406,625.1563 272.5656,625.1563 Q272.2219,625.1563 272.0188,624.9531 Q271.8156,624.7656 271.7063,624.25 Q271.6594,623.8906 271.4719,623.7031 Q271.1438,623.3281 270.5344,623.1094 Q269.925,622.8906 269.3,622.8906 Q268.5344,622.8906 267.8938,623.2188 Q267.2688,623.5469 266.7688,624.2969 Q266.2844,625.0469 266.2844,626.0781 L266.2844,627.1719 Q266.2844,628.4063 267.175,629.2344 Q268.0656,630.0469 269.6594,630.0469 Q270.5969,630.0469 271.2531,629.7969 Q271.6438,629.6406 272.0656,629.2031 Q272.3313,628.9375 272.4719,628.8594 Q272.6281,628.7813 272.8313,628.7813 Q273.1594,628.7813 273.4094,629.0469 Q273.675,629.2969 273.675,629.6406 Q273.675,629.9844 273.3313,630.3906 Q272.8313,630.9688 272.0344,631.2969 Q270.9563,631.75 269.6594,631.75 Q268.1438,631.75 266.9406,631.125 Q265.9563,630.625 265.2688,629.5625 Q264.5813,628.4844 264.5813,627.2031 L264.5813,626.0469 Q264.5813,624.7188 265.1906,623.5781 Q265.8156,622.4219 266.9094,621.8125 Q268.0031,621.1875 269.2375,621.1875 Q269.9719,621.1875 270.6125,621.3594 Q271.2688,621.5156 271.8156,621.875 Z " fill="#000000"/><text fill="#FFFFFF" font-family="sans-serif" font-size="14" lengthAdjust="spacing" textLength="36" x="288.95" y="631.7285">Plano</text><line style="stroke:#FFFFFF;stroke-width:0.5;" x1="228.5" x2="353.5" y1="642" y2="642"/><text fill="#000000" font-family="sans-serif" font-size="14" lengthAdjust="spacing" textLength="39" x="233.5" y="660.5332">-id: int</text><text fill="#000000" font-family="sans-serif" font-size="14" lengthAdjust="spacing" textLength="83" x="233.5" y="678.1426">-nome: string</text><text fill="#000000" font-family="sans-serif" font-size="14" lengthAdjust="spacing" textLength="109" x="233.5" y="695.752">-descricao: string</text><text fill="#000000" font-family="sans-serif" font-size="14" lengthAdjust="spacing" textLength="92" x="233.5" y="713.3613">-preco: double</text><text fill="#000000" font-family="sans-serif" font-size="14" lengthAdjust="spacing" textLength="115" x="233.5" y="730.9707">-frequencia: string</text><line style="stroke:#FFFFFF;stroke-width:0.5;" x1="228.5" x2="353.5" y1="738.0469" y2="738.0469"/></g><!--class Assinatura--><g id="elem_Assinatura"><rect codeLine="68" fill="#979C9F" height="100.8281" id="Assinatura" rx="2.5" ry="2.5" style="stroke:#FFFFFF;stroke-width:0.5;" width="170" x="292" y="431"/><ellipse cx="339.25" cy="447" fill="#ADD1B2" rx="11" ry="11" style="stroke:#181818;stroke-width:1.0;"/><path d="M342.0156,442.875 Q342.1719,442.6563 342.3594,442.5469 Q342.5469,442.4375 342.7656,442.4375 Q343.1406,442.4375 343.375,442.7031 Q343.6094,442.9531 343.6094,443.5625 L343.6094,445.0156 Q343.6094,445.625 343.375,445.8906 Q343.1406,446.1563 342.7656,446.1563 Q342.4219,446.1563 342.2188,445.9531 Q342.0156,445.7656 341.9063,445.25 Q341.8594,444.8906 341.6719,444.7031 Q341.3438,444.3281 340.7344,444.1094 Q340.125,443.8906 339.5,443.8906 Q338.7344,443.8906 338.0938,444.2188 Q337.4688,444.5469 336.9688,445.2969 Q336.4844,446.0469 336.4844,447.0781 L336.4844,448.1719 Q336.4844,449.4063 337.375,450.2344 Q338.2656,451.0469 339.8594,451.0469 Q340.7969,451.0469 341.4531,450.7969 Q341.8438,450.6406 342.2656,450.2031 Q342.5313,449.9375 342.6719,449.8594 Q342.8281,449.7813 343.0313,449.7813 Q343.3594,449.7813 343.6094,450.0469 Q343.875,450.2969 343.875,450.6406 Q343.875,450.9844 343.5313,451.3906 Q343.0313,451.9688 342.2344,452.2969 Q341.1563,452.75 339.8594,452.75 Q338.3438,452.75 337.1406,452.125 Q336.1563,451.625 335.4688,450.5625 Q334.7813,449.4844 334.7813,448.2031 L334.7813,447.0469 Q334.7813,445.7188 335.3906,444.5781 Q336.0156,443.4219 337.1094,442.8125 Q338.2031,442.1875 339.4375,442.1875 Q340.1719,442.1875 340.8125,442.3594 Q341.4688,442.5156 342.0156,442.875 Z " fill="#000000"/><text fill="#FFFFFF" font-family="sans-serif" font-size="14" lengthAdjust="spacing" textLength="67" x="359.75" y="452.7285">Assinatura</text><line style="stroke:#FFFFFF;stroke-width:0.5;" x1="293" x2="461" y1="463" y2="463"/><text fill="#000000" font-family="sans-serif" font-size="14" lengthAdjust="spacing" textLength="39" x="298" y="481.5332">-id: int</text><text fill="#000000" font-family="sans-serif" font-size="14" lengthAdjust="spacing" textLength="103" x="298" y="499.1426">-dataInicio: Date</text><text fill="#000000" font-family="sans-serif" font-size="14" lengthAdjust="spacing" textLength="158" x="298" y="516.752">-status: StatusAssinatura</text><line style="stroke:#FFFFFF;stroke-width:0.5;" x1="293" x2="461" y1="523.8281" y2="523.8281"/></g><!--class Pedido--><g id="elem_Pedido"><rect codeLine="81" fill="#979C9F" height="118.4375" id="Pedido" rx="2.5" ry="2.5" style="stroke:#FFFFFF;stroke-width:0.5;" width="147" x="389.5" y="619"/><ellipse cx="436.75" cy="635" fill="#ADD1B2" rx="11" ry="11" style="stroke:#181818;stroke-width:1.0;"/><path d="M439.5156,630.875 Q439.6719,630.6563 439.8594,630.5469 Q440.0469,630.4375 440.2656,630.4375 Q440.6406,630.4375 440.875,630.7031 Q441.1094,630.9531 441.1094,631.5625 L441.1094,633.0156 Q441.1094,633.625 440.875,633.8906 Q440.6406,634.1563 440.2656,634.1563 Q439.9219,634.1563 439.7188,633.9531 Q439.5156,633.7656 439.4063,633.25 Q439.3594,632.8906 439.1719,632.7031 Q438.8438,632.3281 438.2344,632.1094 Q437.625,631.8906 437,631.8906 Q436.2344,631.8906 435.5938,632.2188 Q434.9688,632.5469 434.4688,633.2969 Q433.9844,634.0469 433.9844,635.0781 L433.9844,636.1719 Q433.9844,637.4063 434.875,638.2344 Q435.7656,639.0469 437.3594,639.0469 Q438.2969,639.0469 438.9531,638.7969 Q439.3438,638.6406 439.7656,638.2031 Q440.0313,637.9375 440.1719,637.8594 Q440.3281,637.7813 440.5313,637.7813 Q440.8594,637.7813 441.1094,638.0469 Q441.375,638.2969 441.375,638.6406 Q441.375,638.9844 441.0313,639.3906 Q440.5313,639.9688 439.7344,640.2969 Q438.6563,640.75 437.3594,640.75 Q435.8438,640.75 434.6406,640.125 Q433.6563,639.625 432.9688,638.5625 Q432.2813,637.4844 432.2813,636.2031 L432.2813,635.0469 Q432.2813,633.7188 432.8906,632.5781 Q433.5156,631.4219 434.6094,630.8125 Q435.7031,630.1875 436.9375,630.1875 Q437.6719,630.1875 438.3125,630.3594 Q438.9688,630.5156 439.5156,630.875 Z " fill="#000000"/><text fill="#FFFFFF" font-family="sans-serif" font-size="14" lengthAdjust="spacing" textLength="44" x="457.25" y="640.7285">Pedido</text><line style="stroke:#FFFFFF;stroke-width:0.5;" x1="390.5" x2="535.5" y1="651" y2="651"/><text fill="#000000" font-family="sans-serif" font-size="14" lengthAdjust="spacing" textLength="39" x="395.5" y="669.5332">-id: int</text><text fill="#000000" font-family="sans-serif" font-size="14" lengthAdjust="spacing" textLength="71" x="395.5" y="687.1426">-data: Date</text><text fill="#000000" font-family="sans-serif" font-size="14" lengthAdjust="spacing" textLength="135" x="395.5" y="704.752">-status: StatusPedido</text><text fill="#000000" font-family="sans-serif" font-size="14" lengthAdjust="spacing" textLength="119" x="395.5" y="722.3613">-valorTotal: double</text><line style="stroke:#FFFFFF;stroke-width:0.5;" x1="390.5" x2="535.5" y1="729.4375" y2="729.4375"/></g><!--class ItemPedido--><g id="elem_ItemPedido"><rect codeLine="94" fill="#979C9F" height="83.2188" id="ItemPedido" rx="2.5" ry="2.5" style="stroke:#FFFFFF;stroke-width:0.5;" width="152" x="575" y="841.5"/><ellipse cx="612.5" cy="857.5" fill="#ADD1B2" rx="11" ry="11" style="stroke:#181818;stroke-width:1.0;"/><path d="M615.2656,853.375 Q615.4219,853.1563 615.6094,853.0469 Q615.7969,852.9375 616.0156,852.9375 Q616.3906,852.9375 616.625,853.2031 Q616.8594,853.4531 616.8594,854.0625 L616.8594,855.5156 Q616.8594,856.125 616.625,856.3906 Q616.3906,856.6563 616.0156,856.6563 Q615.6719,856.6563 615.4688,856.4531 Q615.2656,856.2656 615.1563,855.75 Q615.1094,855.3906 614.9219,855.2031 Q614.5938,854.8281 613.9844,854.6094 Q613.375,854.3906 612.75,854.3906 Q611.9844,854.3906 611.3438,854.7188 Q610.7188,855.0469 610.2188,855.7969 Q609.7344,856.5469 609.7344,857.5781 L609.7344,858.6719 Q609.7344,859.9063 610.625,860.7344 Q611.5156,861.5469 613.1094,861.5469 Q614.0469,861.5469 614.7031,861.2969 Q615.0938,861.1406 615.5156,860.7031 Q615.7813,860.4375 615.9219,860.3594 Q616.0781,860.2813 616.2813,860.2813 Q616.6094,860.2813 616.8594,860.5469 Q617.125,860.7969 617.125,861.1406 Q617.125,861.4844 616.7813,861.8906 Q616.2813,862.4688 615.4844,862.7969 Q614.4063,863.25 613.1094,863.25 Q611.5938,863.25 610.3906,862.625 Q609.4063,862.125 608.7188,861.0625 Q608.0313,859.9844 608.0313,858.7031 L608.0313,857.5469 Q608.0313,856.2188 608.6406,855.0781 Q609.2656,853.9219 610.3594,853.3125 Q611.4531,852.6875 612.6875,852.6875 Q613.4219,852.6875 614.0625,852.8594 Q614.7188,853.0156 615.2656,853.375 Z " fill="#000000"/><text fill="#FFFFFF" font-family="sans-serif" font-size="14" lengthAdjust="spacing" textLength="70" x="631.5" y="863.2285">ItemPedido</text><line style="stroke:#FFFFFF;stroke-width:0.5;" x1="576" x2="726" y1="873.5" y2="873.5"/><text fill="#000000" font-family="sans-serif" font-size="14" lengthAdjust="spacing" textLength="99" x="581" y="892.0332">-quantidade: int</text><text fill="#000000" font-family="sans-serif" font-size="14" lengthAdjust="spacing" textLength="140" x="581" y="909.6426">-precoUnitario: double</text><line style="stroke:#FFFFFF;stroke-width:0.5;" x1="576" x2="726" y1="916.7188" y2="916.7188"/></g><!--class Produto--><g id="elem_Produto"><rect codeLine="99" fill="#979C9F" height="100.8281" id="Produto" rx="2.5" ry="2.5" style="stroke:#FFFFFF;stroke-width:0.5;" width="104" x="675" y="1028.5"/><ellipse cx="699.9" cy="1044.5" fill="#ADD1B2" rx="11" ry="11" style="stroke:#181818;stroke-width:1.0;"/><path d="M702.6656,1040.375 Q702.8219,1040.1563 703.0094,1040.0469 Q703.1969,1039.9375 703.4156,1039.9375 Q703.7906,1039.9375 704.025,1040.2031 Q704.2594,1040.4531 704.2594,1041.0625 L704.2594,1042.5156 Q704.2594,1043.125 704.025,1043.3906 Q703.7906,1043.6563 703.4156,1043.6563 Q703.0719,1043.6563 702.8688,1043.4531 Q702.6656,1043.2656 702.5563,1042.75 Q702.5094,1042.3906 702.3219,1042.2031 Q701.9938,1041.8281 701.3844,1041.6094 Q700.775,1041.3906 700.15,1041.3906 Q699.3844,1041.3906 698.7438,1041.7188 Q698.1188,1042.0469 697.6188,1042.7969 Q697.1344,1043.5469 697.1344,1044.5781 L697.1344,1045.6719 Q697.1344,1046.9063 698.025,1047.7344 Q698.9156,1048.5469 700.5094,1048.5469 Q701.4469,1048.5469 702.1031,1048.2969 Q702.4938,1048.1406 702.9156,1047.7031 Q703.1813,1047.4375 703.3219,1047.3594 Q703.4781,1047.2813 703.6813,1047.2813 Q704.0094,1047.2813 704.2594,1047.5469 Q704.525,1047.7969 704.525,1048.1406 Q704.525,1048.4844 704.1813,1048.8906 Q703.6813,1049.4688 702.8844,1049.7969 Q701.8063,1050.25 700.5094,1050.25 Q698.9938,1050.25 697.7906,1049.625 Q696.8063,1049.125 696.1188,1048.0625 Q695.4313,1046.9844 695.4313,1045.7031 L695.4313,1044.5469 Q695.4313,1043.2188 696.0406,1042.0781 Q696.6656,1040.9219 697.7594,1040.3125 Q698.8531,1039.6875 700.0875,1039.6875 Q700.8219,1039.6875 701.4625,1039.8594 Q702.1188,1040.0156 702.6656,1040.375 Z " fill="#000000"/><text fill="#FFFFFF" font-family="sans-serif" font-size="14" lengthAdjust="spacing" textLength="50" x="716.1" y="1050.2285">Produto</text><line style="stroke:#FFFFFF;stroke-width:0.5;" x1="676" x2="778" y1="1060.5" y2="1060.5"/><text fill="#000000" font-family="sans-serif" font-size="14" lengthAdjust="spacing" textLength="39" x="681" y="1079.0332">-id: int</text><text fill="#000000" font-family="sans-serif" font-size="14" lengthAdjust="spacing" textLength="83" x="681" y="1096.6426">-nome: string</text><text fill="#000000" font-family="sans-serif" font-size="14" lengthAdjust="spacing" textLength="92" x="681" y="1114.252">-preco: double</text><line style="stroke:#FFFFFF;stroke-width:0.5;" x1="676" x2="778" y1="1121.3281" y2="1121.3281"/></g><!--class Entrega--><g id="elem_Entrega"><rect codeLine="114" fill="#979C9F" height="118.4375" id="Entrega" rx="2.5" ry="2.5" style="stroke:#FFFFFF;stroke-width:0.5;" width="153" x="386.5" y="824"/><ellipse cx="433.75" cy="840" fill="#ADD1B2" rx="11" ry="11" style="stroke:#181818;stroke-width:1.0;"/><path d="M436.5156,835.875 Q436.6719,835.6563 436.8594,835.5469 Q437.0469,835.4375 437.2656,835.4375 Q437.6406,835.4375 437.875,835.7031 Q438.1094,835.9531 438.1094,836.5625 L438.1094,838.0156 Q438.1094,838.625 437.875,838.8906 Q437.6406,839.1563 437.2656,839.1563 Q436.9219,839.1563 436.7188,838.9531 Q436.5156,838.7656 436.4063,838.25 Q436.3594,837.8906 436.1719,837.7031 Q435.8438,837.3281 435.2344,837.1094 Q434.625,836.8906 434,836.8906 Q433.2344,836.8906 432.5938,837.2188 Q431.9688,837.5469 431.4688,838.2969 Q430.9844,839.0469 430.9844,840.0781 L430.9844,841.1719 Q430.9844,842.4063 431.875,843.2344 Q432.7656,844.0469 434.3594,844.0469 Q435.2969,844.0469 435.9531,843.7969 Q436.3438,843.6406 436.7656,843.2031 Q437.0313,842.9375 437.1719,842.8594 Q437.3281,842.7813 437.5313,842.7813 Q437.8594,842.7813 438.1094,843.0469 Q438.375,843.2969 438.375,843.6406 Q438.375,843.9844 438.0313,844.3906 Q437.5313,844.9688 436.7344,845.2969 Q435.6563,845.75 434.3594,845.75 Q432.8438,845.75 431.6406,845.125 Q430.6563,844.625 429.9688,843.5625 Q429.2813,842.4844 429.2813,841.2031 L429.2813,840.0469 Q429.2813,838.7188 429.8906,837.5781 Q430.5156,836.4219 431.6094,835.8125 Q432.7031,835.1875 433.9375,835.1875 Q434.6719,835.1875 435.3125,835.3594 Q435.9688,835.5156 436.5156,835.875 Z " fill="#000000"/><text fill="#FFFFFF" font-family="sans-serif" font-size="14" lengthAdjust="spacing" textLength="50" x="454.25" y="845.7285">Entrega</text><line style="stroke:#FFFFFF;stroke-width:0.5;" x1="387.5" x2="538.5" y1="856" y2="856"/><text fill="#000000" font-family="sans-serif" font-size="14" lengthAdjust="spacing" textLength="39" x="392.5" y="874.5332">-id: int</text><text fill="#000000" font-family="sans-serif" font-size="14" lengthAdjust="spacing" textLength="122" x="392.5" y="892.1426">-dataPrevista: Date</text><text fill="#000000" font-family="sans-serif" font-size="14" lengthAdjust="spacing" textLength="100" x="392.5" y="909.752">-dataReal: Date</text><text fill="#000000" font-family="sans-serif" font-size="14" lengthAdjust="spacing" textLength="141" x="392.5" y="927.3613">-status: StatusEntrega</text><line style="stroke:#FFFFFF;stroke-width:0.5;" x1="387.5" x2="538.5" y1="934.4375" y2="934.4375"/></g><!--class Pagamento--><g id="elem_Pagamento"><rect codeLine="129" fill="#979C9F" height="118.4375" id="Pagamento" rx="2.5" ry="2.5" style="stroke:#FFFFFF;stroke-width:0.5;" width="175" x="176.5" y="824"/><ellipse cx="223.75" cy="840" fill="#ADD1B2" rx="11" ry="11" style="stroke:#181818;stroke-width:1.0;"/><path d="M226.5156,835.875 Q226.6719,835.6563 226.8594,835.5469 Q227.0469,835.4375 227.2656,835.4375 Q227.6406,835.4375 227.875,835.7031 Q228.1094,835.9531 228.1094,836.5625 L228.1094,838.0156 Q228.1094,838.625 227.875,838.8906 Q227.6406,839.1563 227.2656,839.1563 Q226.9219,839.1563 226.7188,838.9531 Q226.5156,838.7656 226.4063,838.25 Q226.3594,837.8906 226.1719,837.7031 Q225.8438,837.3281 225.2344,837.1094 Q224.625,836.8906 224,836.8906 Q223.2344,836.8906 222.5938,837.2188 Q221.9688,837.5469 221.4688,838.2969 Q220.9844,839.0469 220.9844,840.0781 L220.9844,841.1719 Q220.9844,842.4063 221.875,843.2344 Q222.7656,844.0469 224.3594,844.0469 Q225.2969,844.0469 225.9531,843.7969 Q226.3438,843.6406 226.7656,843.2031 Q227.0313,842.9375 227.1719,842.8594 Q227.3281,842.7813 227.5313,842.7813 Q227.8594,842.7813 228.1094,843.0469 Q228.375,843.2969 228.375,843.6406 Q228.375,843.9844 228.0313,844.3906 Q227.5313,844.9688 226.7344,845.2969 Q225.6563,845.75 224.3594,845.75 Q222.8438,845.75 221.6406,845.125 Q220.6563,844.625 219.9688,843.5625 Q219.2813,842.4844 219.2813,841.2031 L219.2813,840.0469 Q219.2813,838.7188 219.8906,837.5781 Q220.5156,836.4219 221.6094,835.8125 Q222.7031,835.1875 223.9375,835.1875 Q224.6719,835.1875 225.3125,835.3594 Q225.9688,835.5156 226.5156,835.875 Z " fill="#000000"/><text fill="#FFFFFF" font-family="sans-serif" font-size="14" lengthAdjust="spacing" textLength="72" x="244.25" y="845.7285">Pagamento</text><line style="stroke:#FFFFFF;stroke-width:0.5;" x1="177.5" x2="350.5" y1="856" y2="856"/><text fill="#000000" font-family="sans-serif" font-size="14" lengthAdjust="spacing" textLength="39" x="182.5" y="874.5332">-id: int</text><text fill="#000000" font-family="sans-serif" font-size="14" lengthAdjust="spacing" textLength="87" x="182.5" y="892.1426">-valor: double</text><text fill="#000000" font-family="sans-serif" font-size="14" lengthAdjust="spacing" textLength="163" x="182.5" y="909.752">-status: StatusPagamento</text><text fill="#000000" font-family="sans-serif" font-size="14" lengthAdjust="spacing" textLength="95" x="182.5" y="927.3613">-metodo: string</text><line style="stroke:#FFFFFF;stroke-width:0.5;" x1="177.5" x2="350.5" y1="934.4375" y2="934.4375"/></g><!--class StatusPedido--><g id="elem_StatusPedido"><rect codeLine="142" fill="#979C9F" height="136.0469" id="StatusPedido" rx="2.5" ry="2.5" style="stroke:#FFFFFF;stroke-width:0.5;" width="116" x="10" y="7"/><ellipse cx="25" cy="23" fill="#EB937F" rx="11" ry="11" style="stroke:#181818;stroke-width:1.0;"/><path d="M23.8594,23.7969 L23.8594,26.2969 L28.1875,26.2969 L28.1875,25.375 Q28.1875,24.7656 28.4219,24.5 Q28.6719,24.2344 29.0469,24.2344 Q29.4219,24.2344 29.6563,24.5 Q29.8906,24.7656 29.8906,25.375 L29.8906,28 L21.8906,28 Q21.2656,28 21,27.7656 Q20.75,27.5313 20.75,27.1406 Q20.75,26.7656 21.0156,26.5313 Q21.2813,26.2969 21.8906,26.2969 L22.1563,26.2969 L22.1563,19.6406 L21.8906,19.6406 Q21.2656,19.6406 21,19.4063 Q20.75,19.1719 20.75,18.7813 Q20.75,18.4063 21,18.1719 Q21.2656,17.9375 21.8906,17.9375 L29.5156,17.9375 L29.5156,20.5313 Q29.5156,21.1406 29.2813,21.4063 Q29.0625,21.6563 28.6719,21.6563 Q28.2969,21.6563 28.0625,21.4063 Q27.8281,21.1406 27.8281,20.5313 L27.8281,19.6406 L23.8594,19.6406 L23.8594,22.0938 L25.3438,22.0938 Q25.3438,21.4375 25.4688,21.25 Q25.7344,20.8438 26.2031,20.8438 Q26.5781,20.8438 26.8125,21.1094 Q27.0469,21.3594 27.0469,21.9688 L27.0469,23.9375 Q27.0469,24.4844 26.9219,24.6719 Q26.6563,25.0625 26.2031,25.0625 Q25.7344,25.0625 25.4688,24.6563 Q25.3438,24.4688 25.3438,23.7969 L23.8594,23.7969 Z " fill="#000000"/><text fill="#FFFFFF" font-family="sans-serif" font-size="14" lengthAdjust="spacing" textLength="84" x="39" y="28.7285">StatusPedido</text><line style="stroke:#FFFFFF;stroke-width:0.5;" x1="11" x2="125" y1="39" y2="39"/><text fill="#000000" font-family="sans-serif" font-size="14" lengthAdjust="spacing" textLength="73" x="16" y="57.5332">PENDENTE</text><text fill="#000000" font-family="sans-serif" font-size="14" lengthAdjust="spacing" textLength="40" x="16" y="75.1426">PAGO</text><text fill="#000000" font-family="sans-serif" font-size="14" lengthAdjust="spacing" textLength="60" x="16" y="92.752">ENVIADO</text><text fill="#000000" font-family="sans-serif" font-size="14" lengthAdjust="spacing" textLength="75" x="16" y="110.3613">ENTREGUE</text><text fill="#000000" font-family="sans-serif" font-size="14" lengthAdjust="spacing" textLength="85" x="16" y="127.9707">CANCELADO</text><line style="stroke:#FFFFFF;stroke-width:0.5;" x1="11" x2="125" y1="135.0469" y2="135.0469"/></g><!--class StatusPagamento--><g id="elem_StatusPagamento"><rect codeLine="150" fill="#979C9F" height="100.8281" id="StatusPagamento" rx="2.5" ry="2.5" style="stroke:#FFFFFF;stroke-width:0.5;" width="144" x="161" y="24.5"/><ellipse cx="176" cy="40.5" fill="#EB937F" rx="11" ry="11" style="stroke:#181818;stroke-width:1.0;"/><path d="M174.8594,41.2969 L174.8594,43.7969 L179.1875,43.7969 L179.1875,42.875 Q179.1875,42.2656 179.4219,42 Q179.6719,41.7344 180.0469,41.7344 Q180.4219,41.7344 180.6563,42 Q180.8906,42.2656 180.8906,42.875 L180.8906,45.5 L172.8906,45.5 Q172.2656,45.5 172,45.2656 Q171.75,45.0313 171.75,44.6406 Q171.75,44.2656 172.0156,44.0313 Q172.2813,43.7969 172.8906,43.7969 L173.1563,43.7969 L173.1563,37.1406 L172.8906,37.1406 Q172.2656,37.1406 172,36.9063 Q171.75,36.6719 171.75,36.2813 Q171.75,35.9063 172,35.6719 Q172.2656,35.4375 172.8906,35.4375 L180.5156,35.4375 L180.5156,38.0313 Q180.5156,38.6406 180.2813,38.9063 Q180.0625,39.1563 179.6719,39.1563 Q179.2969,39.1563 179.0625,38.9063 Q178.8281,38.6406 178.8281,38.0313 L178.8281,37.1406 L174.8594,37.1406 L174.8594,39.5938 L176.3438,39.5938 Q176.3438,38.9375 176.4688,38.75 Q176.7344,38.3438 177.2031,38.3438 Q177.5781,38.3438 177.8125,38.6094 Q178.0469,38.8594 178.0469,39.4688 L178.0469,41.4375 Q178.0469,41.9844 177.9219,42.1719 Q177.6563,42.5625 177.2031,42.5625 Q176.7344,42.5625 176.4688,42.1563 Q176.3438,41.9688 176.3438,41.2969 L174.8594,41.2969 Z " fill="#000000"/><text fill="#FFFFFF" font-family="sans-serif" font-size="14" lengthAdjust="spacing" textLength="112" x="190" y="46.2285">StatusPagamento</text><line style="stroke:#FFFFFF;stroke-width:0.5;" x1="162" x2="304" y1="56.5" y2="56.5"/><text fill="#000000" font-family="sans-serif" font-size="14" lengthAdjust="spacing" textLength="73" x="167" y="75.0332">PENDENTE</text><text fill="#000000" font-family="sans-serif" font-size="14" lengthAdjust="spacing" textLength="78" x="167" y="92.6426">APROVADO</text><text fill="#000000" font-family="sans-serif" font-size="14" lengthAdjust="spacing" textLength="77" x="167" y="110.252">RECUSADO</text><line style="stroke:#FFFFFF;stroke-width:0.5;" x1="162" x2="304" y1="117.3281" y2="117.3281"/></g><!--class StatusEntrega--><g id="elem_StatusEntrega"><rect codeLine="156" fill="#979C9F" height="100.8281" id="StatusEntrega" rx="2.5" ry="2.5" style="stroke:#FFFFFF;stroke-width:0.5;" width="122" x="7" y="204"/><ellipse cx="22" cy="220" fill="#EB937F" rx="11" ry="11" style="stroke:#181818;stroke-width:1.0;"/><path d="M20.8594,220.7969 L20.8594,223.2969 L25.1875,223.2969 L25.1875,222.375 Q25.1875,221.7656 25.4219,221.5 Q25.6719,221.2344 26.0469,221.2344 Q26.4219,221.2344 26.6563,221.5 Q26.8906,221.7656 26.8906,222.375 L26.8906,225 L18.8906,225 Q18.2656,225 18,224.7656 Q17.75,224.5313 17.75,224.1406 Q17.75,223.7656 18.0156,223.5313 Q18.2813,223.2969 18.8906,223.2969 L19.1563,223.2969 L19.1563,216.6406 L18.8906,216.6406 Q18.2656,216.6406 18,216.4063 Q17.75,216.1719 17.75,215.7813 Q17.75,215.4063 18,215.1719 Q18.2656,214.9375 18.8906,214.9375 L26.5156,214.9375 L26.5156,217.5313 Q26.5156,218.1406 26.2813,218.4063 Q26.0625,218.6563 25.6719,218.6563 Q25.2969,218.6563 25.0625,218.4063 Q24.8281,218.1406 24.8281,217.5313 L24.8281,216.6406 L20.8594,216.6406 L20.8594,219.0938 L22.3438,219.0938 Q22.3438,218.4375 22.4688,218.25 Q22.7344,217.8438 23.2031,217.8438 Q23.5781,217.8438 23.8125,218.1094 Q24.0469,218.3594 24.0469,218.9688 L24.0469,220.9375 Q24.0469,221.4844 23.9219,221.6719 Q23.6563,222.0625 23.2031,222.0625 Q22.7344,222.0625 22.4688,221.6563 Q22.3438,221.4688 22.3438,220.7969 L20.8594,220.7969 Z " fill="#000000"/><text fill="#FFFFFF" font-family="sans-serif" font-size="14" lengthAdjust="spacing" textLength="90" x="36" y="225.7285">StatusEntrega</text><line style="stroke:#FFFFFF;stroke-width:0.5;" x1="8" x2="128" y1="236" y2="236"/><text fill="#000000" font-family="sans-serif" font-size="14" lengthAdjust="spacing" textLength="73" x="13" y="254.5332">PENDENTE</text><text fill="#000000" font-family="sans-serif" font-size="14" lengthAdjust="spacing" textLength="67" x="13" y="272.1426">EM_ROTA</text><text fill="#000000" font-family="sans-serif" font-size="14" lengthAdjust="spacing" textLength="75" x="13" y="289.752">ENTREGUE</text><line style="stroke:#FFFFFF;stroke-width:0.5;" x1="8" x2="128" y1="296.8281" y2="296.8281"/></g><!--class StatusAssinatura--><g id="elem_StatusAssinatura"><rect codeLine="162" fill="#979C9F" height="100.8281" id="StatusAssinatura" rx="2.5" ry="2.5" style="stroke:#FFFFFF;stroke-width:0.5;" width="139" x="164.5" y="204"/><ellipse cx="179.5" cy="220" fill="#EB937F" rx="11" ry="11" style="stroke:#181818;stroke-width:1.0;"/><path d="M178.3594,220.7969 L178.3594,223.2969 L182.6875,223.2969 L182.6875,222.375 Q182.6875,221.7656 182.9219,221.5 Q183.1719,221.2344 183.5469,221.2344 Q183.9219,221.2344 184.1563,221.5 Q184.3906,221.7656 184.3906,222.375 L184.3906,225 L176.3906,225 Q175.7656,225 175.5,224.7656 Q175.25,224.5313 175.25,224.1406 Q175.25,223.7656 175.5156,223.5313 Q175.7813,223.2969 176.3906,223.2969 L176.6563,223.2969 L176.6563,216.6406 L176.3906,216.6406 Q175.7656,216.6406 175.5,216.4063 Q175.25,216.1719 175.25,215.7813 Q175.25,215.4063 175.5,215.1719 Q175.7656,214.9375 176.3906,214.9375 L184.0156,214.9375 L184.0156,217.5313 Q184.0156,218.1406 183.7813,218.4063 Q183.5625,218.6563 183.1719,218.6563 Q182.7969,218.6563 182.5625,218.4063 Q182.3281,218.1406 182.3281,217.5313 L182.3281,216.6406 L178.3594,216.6406 L178.3594,219.0938 L179.8438,219.0938 Q179.8438,218.4375 179.9688,218.25 Q180.2344,217.8438 180.7031,217.8438 Q181.0781,217.8438 181.3125,218.1094 Q181.5469,218.3594 181.5469,218.9688 L181.5469,220.9375 Q181.5469,221.4844 181.4219,221.6719 Q181.1563,222.0625 180.7031,222.0625 Q180.2344,222.0625 179.9688,221.6563 Q179.8438,221.4688 179.8438,220.7969 L178.3594,220.7969 Z " fill="#000000"/><text fill="#FFFFFF" font-family="sans-serif" font-size="14" lengthAdjust="spacing" textLength="107" x="193.5" y="225.7285">StatusAssinatura</text><line style="stroke:#FFFFFF;stroke-width:0.5;" x1="165.5" x2="302.5" y1="236" y2="236"/><text fill="#000000" font-family="sans-serif" font-size="14" lengthAdjust="spacing" textLength="39" x="170.5" y="254.5332">ATIVA</text><text fill="#000000" font-family="sans-serif" font-size="14" lengthAdjust="spacing" textLength="64" x="170.5" y="272.1426">PAUSADA</text><text fill="#000000" font-family="sans-serif" font-size="14" lengthAdjust="spacing" textLength="83" x="170.5" y="289.752">CANCELADA</text><line style="stroke:#FFFFFF;stroke-width:0.5;" x1="165.5" x2="302.5" y1="296.8281" y2="296.8281"/></g><!--reverse link Usuario to Cliente--><g id="link_Usuario_Cliente"><path codeLine="40" d="M493.3604,138.116 C458.8104,172.386 427.16,203.76 400.44,230.25 " fill="none" id="Usuario-backto-Cliente" style="stroke:#BBBBBB;stroke-width:1.0;"/><polygon fill="none" points="506.14,125.44,489.1351,133.8562,497.5857,142.3759,506.14,125.44" style="stroke:#BBBBBB;stroke-width:1.0;"/></g><!--reverse link Usuario to Produtor--><g id="link_Usuario_Produtor"><path codeLine="41" d="M589.8276,150.5815 C617.1476,210.7915 651.37,286.26 673.31,334.62 " fill="none" id="Usuario-backto-Produtor" style="stroke:#BBBBBB;stroke-width:1.0;"/><polygon fill="none" points="582.39,134.19,584.3637,153.0607,595.2914,148.1023,582.39,134.19" style="stroke:#BBBBBB;stroke-width:1.0;"/></g><!--link Cliente to Endereco--><g id="link_Cliente_Endereco"><path codeLine="54" d="M350.77,278.68 C285.88,336.03 123,480.03 123,480.5 C123,480.5 123,480.5 123,884 C123,932.54 145.6,982.6 167.49,1019.71 " fill="none" id="Cliente-Endereco" style="stroke:#BBBBBB;stroke-width:1.0;"/><polygon fill="#FFFFFF" points="126.7995,683.0295,131.8242,674.9546,126.1183,673.5434,126.7995,683.0295" style="stroke:#FFFFFF;stroke-width:1.0;"/><text fill="#FFFFFF" font-family="sans-serif" font-size="13" lengthAdjust="spacing" textLength="38" x="137" y="683.4951">possui</text><text fill="#FFFFFF" font-family="sans-serif" font-size="13" lengthAdjust="spacing" textLength="7" x="336.5233" y="300.0618">1</text><text fill="#FFFFFF" font-family="sans-serif" font-size="13" lengthAdjust="spacing" textLength="7" x="155.1263" y="1008.9989">1</text></g><!--link Cliente to Assinatura--><g id="link_Cliente_Assinatura"><path codeLine="74" d="M377,278.73 C377,314.44 377,383.62 377,430.93 " fill="none" id="Cliente-Assinatura" style="stroke:#BBBBBB;stroke-width:1.0;"/><polygon fill="#FFFFFF" points="382,373.1758,384.9389,364.1307,379.0611,364.1307,382,373.1758" style="stroke:#FFFFFF;stroke-width:1.0;"/><text fill="#FFFFFF" font-family="sans-serif" font-size="13" lengthAdjust="spacing" textLength="38" x="391" y="373.4951">assina</text><text fill="#FFFFFF" font-family="sans-serif" font-size="13" lengthAdjust="spacing" textLength="7" x="369.1469" y="300.124">1</text><text fill="#FFFFFF" font-family="sans-serif" font-size="13" lengthAdjust="spacing" textLength="20" x="355.5938" y="420.2255">0..*</text></g><!--link Assinatura to Plano--><g id="link_Assinatura_Plano"><path codeLine="75" d="M345.55,532.12 C340,541.84 334.55,552.09 330,562 C323.05,577.14 316.68,593.88 311.18,609.8 " fill="none" id="Assinatura-Plano" style="stroke:#BBBBBB;stroke-width:1.0;"/><polygon fill="#FFFFFF" points="332.9769,575.7482,339.3243,568.6658,333.9491,566.2875,332.9769,575.7482" style="stroke:#FFFFFF;stroke-width:1.0;"/><text fill="#FFFFFF" font-family="sans-serif" font-size="13" lengthAdjust="spacing" textLength="34" x="344" y="576.4951">define</text><text fill="#FFFFFF" font-family="sans-serif" font-size="13" lengthAdjust="spacing" textLength="7" x="334.072" y="553.1593">1</text><text fill="#FFFFFF" font-family="sans-serif" font-size="13" lengthAdjust="spacing" textLength="7" x="306.0044" y="598.9774">1</text></g><!--reverse link Assinatura to Pedido--><g id="link_Assinatura_Pedido"><path codeLine="88" d="M403.7744,543.0543 C415.4744,569.5043 425.08,591.23 437.3,618.87 " fill="none" id="Assinatura-backto-Pedido" style="stroke:#BBBBBB;stroke-width:1.0;"/><polygon fill="#BBBBBB" points="398.92,532.08,397.6891,539.1853,403.7744,543.0543,405.0053,535.949,398.92,532.08" style="stroke:#BBBBBB;stroke-width:1.0;"/><polygon fill="#FFFFFF" points="427.0221,575.7486,426.0519,566.2877,420.6762,568.6648,427.0221,575.7486" style="stroke:#FFFFFF;stroke-width:1.0;"/><text fill="#FFFFFF" font-family="sans-serif" font-size="13" lengthAdjust="spacing" textLength="25" x="434" y="576.4951">gera</text><text fill="#FFFFFF" font-family="sans-serif" font-size="13" lengthAdjust="spacing" textLength="7" x="394.3952" y="553.482">1</text><text fill="#FFFFFF" font-family="sans-serif" font-size="13" lengthAdjust="spacing" textLength="20" x="412.9491" y="608.1784">1..*</text></g><!--reverse link Pedido to ItemPedido--><g id="link_Pedido_ItemPedido"><path codeLine="105" d="M525.0236,745.9744 C555.8436,779.2544 585.59,811.37 613.23,841.21 " fill="none" id="Pedido-backto-ItemPedido" style="stroke:#BBBBBB;stroke-width:1.0;"/><polygon fill="#BBBBBB" points="516.87,737.17,518.012,744.2901,525.0236,745.9744,523.8816,738.8543,516.87,737.17" style="stroke:#BBBBBB;stroke-width:1.0;"/><polygon fill="#FFFFFF" points="576.3976,788.8441,572.4075,780.211,568.0951,784.2051,576.3976,788.8441" style="stroke:#FFFFFF;stroke-width:1.0;"/><text fill="#FFFFFF" font-family="sans-serif" font-size="13" lengthAdjust="spacing" textLength="43" x="582" y="790.4951">cont&#233;m</text><text fill="#FFFFFF" font-family="sans-serif" font-size="13" lengthAdjust="spacing" textLength="7" x="516.0088" y="758.8462">1</text><text fill="#FFFFFF" font-family="sans-serif" font-size="13" lengthAdjust="spacing" textLength="20" x="585.6167" y="830.7804">1..*</text></g><!--link ItemPedido to Produto--><g id="link_ItemPedido_Produto"><path codeLine="106" d="M666.93,924.67 C678.77,954.89 694.98,996.28 707.58,1028.43 " fill="none" id="ItemPedido-Produto" style="stroke:#BBBBBB;stroke-width:1.0;"/><polygon fill="#FFFFFF" points="697.8239,985.8313,697.2609,976.3374,691.788,978.4815,697.8239,985.8313" style="stroke:#FFFFFF;stroke-width:1.0;"/><text fill="#FFFFFF" font-family="sans-serif" font-size="13" lengthAdjust="spacing" textLength="43" x="705" y="986.4951">produto</text><text fill="#FFFFFF" font-family="sans-serif" font-size="13" lengthAdjust="spacing" textLength="7" x="661.911" y="946.0919">1</text><text fill="#FFFFFF" font-family="sans-serif" font-size="13" lengthAdjust="spacing" textLength="7" x="697.3569" y="1017.7255">1</text></g><!--link Produtor to Produto--><g id="link_Produtor_Produto"><path codeLine="108" d="M713.14,401.07 C740.38,439.11 780,505.53 780,570 C780,570 780,570 780,884 C780,934.45 763.11,989.76 748.4,1028.36 " fill="none" id="Produtor-Produto" style="stroke:#BBBBBB;stroke-width:1.0;"/><polygon fill="#FFFFFF" points="785.2806,683.1679,787.7073,673.9721,781.8387,674.302,785.2806,683.1679" style="stroke:#FFFFFF;stroke-width:1.0;"/><text fill="#FFFFFF" font-family="sans-serif" font-size="13" lengthAdjust="spacing" textLength="42" x="794" y="683.4951">fornece</text><text fill="#FFFFFF" font-family="sans-serif" font-size="13" lengthAdjust="spacing" textLength="7" x="710.1299" y="422.2058">1</text><text fill="#FFFFFF" font-family="sans-serif" font-size="13" lengthAdjust="spacing" textLength="20" x="730.0031" y="1017.6457">0..*</text></g><!--link Pedido to Entrega--><g id="link_Pedido_Entrega"><path codeLine="121" d="M463,737.17 C463,764.35 463,790.64 463,817.82 " fill="none" id="Pedido-to-Entrega" style="stroke:#BBBBBB;stroke-width:1.0;"/><polygon fill="#BBBBBB" points="463,823.82,467,814.82,463,818.82,459,814.82,463,823.82" style="stroke:#BBBBBB;stroke-width:1.0;"/><polygon fill="#FFFFFF" points="468,790.1758,470.9389,781.1307,465.0611,781.1307,468,790.1758" style="stroke:#FFFFFF;stroke-width:1.0;"/><text fill="#FFFFFF" font-family="sans-serif" font-size="13" lengthAdjust="spacing" textLength="63" x="477" y="790.4951">[idEntrega]</text><text fill="#FFFFFF" font-family="sans-serif" font-size="13" lengthAdjust="spacing" textLength="7" x="455.5734" y="758.8462">1</text><text fill="#FFFFFF" font-family="sans-serif" font-size="13" lengthAdjust="spacing" textLength="7" x="455.5734" y="813.1223">1</text></g><!--link Entrega to Endereco--><g id="link_Entrega_Endereco"><path codeLine="123" d="M386.49,942.21 C345.27,973.57 295.53,1011.41 259.04,1039.17 " fill="none" id="Entrega-Endereco" style="stroke:#BBBBBB;stroke-width:1.0;"/><polygon fill="#FFFFFF" points="345.0207,984.2031,353.9988,981.0656,350.4399,976.3876,345.0207,984.2031" style="stroke:#FFFFFF;stroke-width:1.0;"/><text fill="#FFFFFF" font-family="sans-serif" font-size="13" lengthAdjust="spacing" textLength="42" x="358" y="986.4951">destino</text><text fill="#FFFFFF" font-family="sans-serif" font-size="13" lengthAdjust="spacing" textLength="7" x="371.614" y="944.7419">1</text><text fill="#FFFFFF" font-family="sans-serif" font-size="13" lengthAdjust="spacing" textLength="7" x="267.0506" y="1029.6338">1</text></g><!--link Pedido to Pagamento--><g id="link_Pedido_Pagamento"><path codeLine="136" d="M396.48,737.04 C382.81,749.59 368.71,763.01 356,776 C341.26,791.06 329.8994,803.5157 316.1294,819.4057 " fill="none" id="Pedido-to-Pagamento" style="stroke:#BBBBBB;stroke-width:1.0;"/><polygon fill="#BBBBBB" points="312.2,823.94,321.1169,819.7581,315.4745,820.1614,315.0712,814.5189,312.2,823.94" style="stroke:#BBBBBB;stroke-width:1.0;"/><polygon fill="#FFFFFF" points="357.5085,788.7548,365.9284,784.3325,361.721,780.228,357.5085,788.7548" style="stroke:#FFFFFF;stroke-width:1.0;"/><text fill="#FFFFFF" font-family="sans-serif" font-size="13" lengthAdjust="spacing" textLength="84" x="370" y="790.4951">[idPagamento]</text><text fill="#FFFFFF" font-family="sans-serif" font-size="13" lengthAdjust="spacing" textLength="7" x="380.5087" y="759.1191">1</text><text fill="#FFFFFF" font-family="sans-serif" font-size="13" lengthAdjust="spacing" textLength="7" x="310.6478" y="813.2569">1</text></g><!--SRC=[ZLNTRfim5BxFKrZTnRfAgRfgqXIqLN8Jjs9A0k8dDrCrEU1aLi5EZUccThtOrPvbpz4Nc-qGQX8wu0BiOvzp_7t-pg6ufMo31Sx14YUtQy5BbevvnWLuS_xXV7I-6XJrZfIiS9d9YFoKCADhbXCcGQ9UH0oiRKc6Ym8y3W2ut0yv-ZXAHYkzmaLAH6LTcKTPhpYJJTkJ7HWBmN-OmDMcfNcw7Gahyuu37KPeFwIAkmyLIYdeifJ4JJWBwGC1PuF1M_3vjKUjnM7y_3jmlV2_-mPR9kEYn89o0s18KmTG9lMGyPmue539sLhFIOvfPXiAmhxZsl2qYpVEgBwpQkOBdfPI8NpSnRp23uIb3SVT4Jxz6Wvh_uPn5wOBEPfFK82U_tZWsBlyWY8FJ11OmAaNlEl31MBgHaXIaI5AREDLjqm4h_b9Q8hJ1aC9sTYeAY3WwFqHK13qfuxlW0qlYfA2Yov4_XJEFO0034Dt3gCuW7s0-1bctLUQaY8HDC7SDcxq0HsGydAP4MrO2N9N4fRGbik6HK4PbgN01ybIBB7BQ49Li0cM9bGXrTx20Q7vlZYtqNLsUdfoP2Tm03OJnPbbjTZTWdPq8w6CzA0MJTo9KegIZBk0QZI15isz1EEJbAQy5VjhgBSksdwFLUb7NEAifblni8Vjn80pN5J97B0c0dV3SoCqgp6EfmgPKP4tTc6ayFR2vqgIsnZlIina9VmAgz5BpAZKrMe3QJI0JYqsPQVSgxHx75W7Se1gYFBvRwweiCos8AhSgjggaIAjxaXDeRtiNN71ID93FsWU1UWQzciiKf1rUv7uWjpJmXQCjWP4ow9TGbMqFPQ6mukgoMnpEU0hJQl9ZKQpMsXlIAePICfuZxA1rt2ci7kz2WIliVwH7mh0gD_kCtjbidFKIpcHFELs-sd1_PBA8A-dDtrkCfw5u1Y5aMe3OKTbcD-zNSi6cgz_FVC8wI6yzjG7pHUk2cT6MYYnNXl3-HXDjVcf6Qd1anKC-e6ts8O9q3WE3rrjRLcEQFOjy29efs_wxVLkqnJCwNKIQ9qLAiT_]--></g></svg>
